#N canvas 1474 50 653 633 12;
#X obj 167 301 hradio 27 1 0 8 setCh setCh ch._1-8 10 -8 0 10 -262144
-1 -1 0;
#X obj 386 220 vradio 27 1 0 4 chMode chMode empty 0 -8 0 10 -262144
-1 -1 1;
#X text 421 225 off;
#X text 421 251 single;
#X text 421 304 pan;
#X text 421 278 volume;
#X obj 167 489 hradio 27 1 0 8 setDev setDev DevCont._1-8 10 -8 0 10
-262144 -1 -1 0;
#X obj 386 408 vradio 27 1 0 4 devMode devMode empty 0 -8 0 10 -262144
-1 -1 1;
#X text 421 413 off;
#X text 421 439 single;
#X text 421 492 pan;
#X text 421 466 volume;
