#N canvas 2205 -322 669 522 12;
#X obj 191 141 ctlout;
#X obj 171 99 + 24;
#X obj 73 99 + 56;
#X text 23 17 sends cc message to set LED ring type;
#X obj 73 76 inlet;
#X obj 112 76 inlet;
#X obj 171 76 inlet;
#X obj 210 76 inlet;
#X text 70 55 ch;
#X text 170 55 dev;
#X text 111 57 mode;
#X text 211 57 mode;
#X connect 1 0 0 1;
#X connect 2 0 0 1;
#X connect 4 0 2 0;
#X connect 5 0 0 0;
#X connect 6 0 1 0;
#X connect 7 0 0 0;
