#N canvas 239 64 618 338 12;
#X obj 16 40 ctlin;
#X obj 16 64 ctlout;
#X obj 135 40 notein;
#X obj 135 64 noteout;
#X obj 278 126 line;
#X obj 228 174 select 127;
#X obj 305 174 select 0;
#X msg 299 65 0;
#X msg 262 40 127 20000;
#X obj 278 150 int;
#X text 259 20 loop;
#X text 14 19 make keys/knobs light up;
#X connect 0 0 1 0;
#X connect 0 1 1 1;
#X connect 0 2 1 2;
#X connect 2 0 3 0;
#X connect 2 1 3 1;
#X connect 2 2 3 2;
#X connect 4 0 9 0;
#X connect 5 0 7 0;
#X connect 7 0 4 0;
#X connect 8 0 4 0;
#X connect 9 0 5 0;
#X connect 9 0 6 0;
