#N canvas 1449 162 579 350 12;
#X obj 42 23 notein;
#X obj 56 230 noteout;
#X floatatom 81 47 5 0 0 0 - - -;
#X floatatom 61 69 5 0 0 0 - - -;
#X floatatom 42 91 5 0 0 0 - - -;
#X obj 141 22 ctlin;
#X floatatom 141 89 5 0 0 0 - - -;
#X floatatom 157 67 5 0 0 0 - - -;
#X floatatom 173 46 5 0 0 0 - - -;
#X obj 80 174 bng 15 250 50 0 empty empty empty 17 7 0 10 -262144 -1
-1;
#X obj 457 130 line;
#X obj 407 178 select 127;
#X obj 484 178 select 0;
#X msg 478 69 0;
#X msg 441 44 127 20000;
#X obj 457 154 int;
#X msg 11 202 51;
#X msg 70 202 5;
#X msg 122 202 0;
#X obj 242 173 bng 15 250 50 0 empty empty empty 17 7 0 10 -262144
-1 -1;
#X obj 217 229 ctlout;
#X obj 433 240 ctlin;
#X obj 433 264 ctlout;
#X msg 270 201 0;
#X msg 182 201 1;
#X text 295 201 ch;
#X text 259 201 #;
#X text 208 201 val;
#X text 38 202 note;
#X text 97 202 vel;
#X text 148 201 ch;
#X msg 233 201 31;
#X text 444 19 loop;
#X connect 0 0 4 0;
#X connect 0 1 3 0;
#X connect 0 2 2 0;
#X connect 5 0 6 0;
#X connect 5 1 7 0;
#X connect 5 2 8 0;
#X connect 9 0 16 0;
#X connect 9 0 17 0;
#X connect 9 0 18 0;
#X connect 10 0 15 0;
#X connect 11 0 13 0;
#X connect 13 0 10 0;
#X connect 14 0 10 0;
#X connect 15 0 11 0;
#X connect 15 0 12 0;
#X connect 16 0 1 0;
#X connect 17 0 1 1;
#X connect 18 0 1 2;
#X connect 19 0 24 0;
#X connect 19 0 31 0;
#X connect 19 0 23 0;
#X connect 21 0 22 0;
#X connect 21 1 22 1;
#X connect 21 2 22 2;
#X connect 23 0 20 2;
#X connect 24 0 20 0;
#X connect 31 0 20 1;
